<svg version="1.1" xmlns="http://www.w3.org/2000/svg" xmlns:xlink="http://www.w3.org/1999/xlink" width="305.03721" height="416.54766" viewBox="0,0,305.03721,416.54766"><g transform="translate(26.13142,39.77896)"><g data-paper-data="{&quot;isPaintingLayer&quot;:true}" stroke-miterlimit="10" stroke-dasharray="" stroke-dashoffset="0" style="mix-blend-mode: normal"><path d="M108.54182,232.3452c-2.09077,6.76728 -1.53253,14.13493 3.45468,19.16431c34.06279,26.65843 84.30911,58.09874 41.98321,104.76389c-60.04197,56.01818 -146.81032,-47.75574 -168.74465,-86.14758c-19.59605,-33.96283 5.28231,-65.08698 26.31098,-91.51355c41.74658,-49.02448 76.10446,-92.48245 127.63582,-86.37334c64.19697,6.75164 33.31486,64.36561 9.03686,92.84077c-14.50886,17.32104 -28.72809,35.82174 -39.67691,47.26553z" data-paper-data="{&quot;index&quot;:null}" fill="#ffab19" fill-rule="evenodd" stroke="#001026" stroke-width="8.5" stroke-linecap="round" stroke-linejoin="round"/><path d="M140.3445,69.74143c-7.44078,-7.99106 15.4871,-40.84983 15.4871,-40.84983c0,0 -30.18724,-26.37084 -24.8849,-35.9226c5.3006,-9.55865 43.64883,2.10075 43.64883,2.10075c0,0 15.75462,-36.85406 26.47594,-34.76298c10.72886,2.0895 11.48845,42.15843 11.48845,42.15843c0,0 39.91548,3.58664 41.25003,14.42944c1.33061,10.85875 -36.54887,23.96749 -36.54887,23.96749c0,0 8.92427,39.0705 -0.98596,43.67765c-9.89876,4.62714 -34.0764,-27.34641 -34.0764,-27.34641c0,0 -34.40888,20.56085 -41.85421,12.54805z" fill="#ff0000" fill-rule="nonzero" stroke="none" stroke-width="0" stroke-linecap="butt" stroke-linejoin="miter"/><path d="M151.8003,63.11286c-6.04086,-6.48761 12.57332,-33.16425 12.57332,-33.16425c0,0 -24.50775,-21.40937 -20.20299,-29.16404c4.30333,-7.76027 35.43664,1.70551 35.43664,1.70551c0,0 12.7905,-29.92023 21.49469,-28.22258c8.7103,1.69637 9.32698,34.22663 9.32698,34.22663c0,0 32.40569,2.91185 33.48915,11.71465c1.08027,8.81575 -29.67249,19.4582 -29.67249,19.4582c0,0 7.24524,31.71967 -0.80045,35.46003c-8.03639,3.75658 -27.66519,-22.20138 -27.66519,-22.20138c0,0 -27.93509,16.69247 -33.97966,10.18722z" fill="#ffb500" fill-rule="nonzero" stroke="none" stroke-width="0" stroke-linecap="butt" stroke-linejoin="miter"/><path d="M170.86593,44.02151c-3.03758,-3.2676 6.3213,-16.67767 6.3213,-16.67767c0,0 -12.31608,-10.75541 -10.15229,-14.65034c2.16383,-3.89472 17.80117,0.85665 17.80117,0.85665c0,0 6.43566,-15.02926 10.80282,-14.18063c4.37454,0.85345 4.6835,17.19423 4.6835,17.19423c0,0 16.28706,1.46578 16.82544,5.89517c0.5433,4.42245 -14.90833,9.76249 -14.90833,9.76249c0,0 3.63821,15.94782 -0.40098,17.82732c-4.04256,1.89272 -13.90006,-11.14723 -13.90006,-11.14723c0,0 -14.03743,8.37609 -17.07258,5.12003z" fill="#e2ff00" fill-rule="nonzero" stroke="none" stroke-width="2.57572" stroke-linecap="butt" stroke-linejoin="miter"/><path d="M201.69006,85.18008v-17.06126h59.43921v17.06126z" fill="#5c5c5c" fill-rule="nonzero" stroke="none" stroke-width="0" stroke-linecap="butt" stroke-linejoin="miter"/><path d="M148.54497,130.26831v-106.71106h75.73343v106.71106z" fill="#090909" fill-rule="nonzero" stroke="none" stroke-width="0" stroke-linecap="butt" stroke-linejoin="miter"/><path d="M201.74508,350.42883v-306.13197h0.60988l76.55082,306.13197z" fill="#000000" fill-rule="nonzero" stroke="none" stroke-width="NaN" stroke-linecap="butt" stroke-linejoin="miter"/><path d="M88.50636,350.5517l77.55826,-305.19452h0.61791v305.19452z" data-paper-data="{&quot;index&quot;:null}" fill="#000000" fill-rule="nonzero" stroke="none" stroke-width="NaN" stroke-linecap="butt" stroke-linejoin="miter"/><path d="M161.24584,350.6453v-304.67084h53.40041v304.67084z" fill="#000000" fill-rule="nonzero" stroke="none" stroke-width="0" stroke-linecap="butt" stroke-linejoin="miter"/><path d="M141.39931,30.75383v-16.86334h35.07865v16.86334z" fill="#090909" fill-rule="nonzero" stroke="none" stroke-width="0" stroke-linecap="butt" stroke-linejoin="miter"/><path d="M197.41567,30.6623v-16.86334h35.07864v16.86334z" fill="#090909" fill-rule="nonzero" stroke="none" stroke-width="0" stroke-linecap="butt" stroke-linejoin="miter"/><path d="M185.00362,41.62105v-23.11082h3.29804v23.11082z" fill="#090909" fill-rule="nonzero" stroke="none" stroke-width="0" stroke-linecap="butt" stroke-linejoin="miter"/></g></g></svg>