<svg version="1.1" xmlns="http://www.w3.org/2000/svg" xmlns:xlink="http://www.w3.org/1999/xlink" width="48.5" height="48.5" viewBox="0,0,48.5,48.5"><defs><radialGradient cx="240.01287" cy="180" r="20.4375" gradientUnits="userSpaceOnUse" id="color-1"><stop offset="0" stop-color="#dedede"/><stop offset="1" stop-color="#c0c0c0"/></radialGradient><radialGradient cx="240.01287" cy="180" r="20.4375" gradientUnits="userSpaceOnUse" id="color-2"><stop offset="0" stop-color="#000000" stop-opacity="0"/><stop offset="1" stop-color="#000000" stop-opacity="0"/></radialGradient><linearGradient x1="219.54963" y1="179.75735" x2="259.04963" y2="179.75735" gradientUnits="userSpaceOnUse" id="color-3"><stop offset="0" stop-color="#ffe500" stop-opacity="0"/><stop offset="1" stop-color="#ffe500" stop-opacity="0"/></linearGradient><linearGradient x1="219.54963" y1="179.75735" x2="259.04963" y2="179.75735" gradientUnits="userSpaceOnUse" id="color-4"><stop offset="0" stop-color="#f6fd00"/><stop offset="1" stop-color="#ffe600"/></linearGradient></defs><g transform="translate(-215.04963,-155.50735)"><g data-paper-data="{&quot;isPaintingLayer&quot;:true}" fill-rule="nonzero" stroke-linecap="butt" stroke-linejoin="miter" stroke-miterlimit="10" stroke-dasharray="" stroke-dashoffset="0" style="mix-blend-mode: normal"><path d="M219.57537,180c0,-11.28732 9.15018,-20.4375 20.4375,-20.4375c11.28732,0 20.4375,9.15018 20.4375,20.4375c0,11.28732 -9.15018,20.4375 -20.4375,20.4375c-11.28732,0 -20.4375,-9.15018 -20.4375,-20.4375z" fill="url(#color-1)" stroke="url(#color-2)" stroke-width="0"/><path d="M219.54963,179.75735c0,-10.90762 8.84238,-19.75 19.75,-19.75c10.90762,0 19.75,8.84238 19.75,19.75c0,10.90762 -8.84238,19.75 -19.75,19.75c-10.90762,0 -19.75,-8.84238 -19.75,-19.75z" fill="url(#color-3)" stroke="url(#color-4)" stroke-width="9"/></g></g></svg>