<svg version="1.1" xmlns="http://www.w3.org/2000/svg" xmlns:xlink="http://www.w3.org/1999/xlink" width="68" height="68" viewBox="0,0,68,68"><g transform="translate(-206,-146)"><g data-paper-data="{&quot;isPaintingLayer&quot;:true}" fill-rule="nonzero" stroke-linecap="butt" stroke-linejoin="miter" stroke-miterlimit="10" stroke-dasharray="" stroke-dashoffset="0" style="mix-blend-mode: normal"><path d="M207.5,180c0,-17.94925 14.55075,-32.5 32.5,-32.5c17.94925,0 32.5,14.55075 32.5,32.5c0,17.94925 -14.55075,32.5 -32.5,32.5c-17.94925,0 -32.5,-14.55075 -32.5,-32.5z" fill="#ff0000" stroke="#000000" stroke-width="3"/><path d="M218.63636,180c0,-11.79881 9.56483,-21.36364 21.36364,-21.36364c11.79881,0 21.36364,9.56483 21.36364,21.36364c0,11.79881 -9.56483,21.36364 -21.36364,21.36364c-11.79881,0 -21.36364,-9.56483 -21.36364,-21.36364z" fill="#ffffff" stroke="none" stroke-width="0"/><path d="M224.88637,180c0,-8.34703 6.7666,-15.11363 15.11363,-15.11363c8.34703,0 15.11363,6.7666 15.11363,15.11363c0,8.34703 -6.7666,15.11364 -15.11363,15.11364c-8.34703,0 -15.11363,-6.7666 -15.11363,-15.11364z" fill="#ff0000" stroke="none" stroke-width="0"/><path d="M230.68182,180c0,-5.14629 4.17189,-9.31818 9.31818,-9.31818c5.14629,0 9.31818,4.17189 9.31818,9.31818c0,5.14629 -4.17189,9.31818 -9.31818,9.31818c-5.14629,0 -9.31818,-4.17189 -9.31818,-9.31818z" fill="#ffffff" stroke="none" stroke-width="0"/></g></g></svg>