<svg version="1.1" xmlns="http://www.w3.org/2000/svg" xmlns:xlink="http://www.w3.org/1999/xlink" width="353.10954" height="441.01685" viewBox="0,0,353.10954,441.01685"><g transform="translate(2.37309,48.76976)"><g data-paper-data="{&quot;isPaintingLayer&quot;:true}" stroke-miterlimit="10" stroke-dasharray="" stroke-dashoffset="0" style="mix-blend-mode: normal"><path d="M190.00165,72.33681c-10.91338,0.34708 -20.57776,-38.53719 -20.57776,-38.53719c0,0 -39.71985,5.38736 -43.42559,-4.88972c-3.71207,-10.2803 30.29661,-31.49204 30.29661,-31.49204c0,0 -17.39235,-36.11005 -8.76443,-42.80917c8.6317,-6.70583 39.30922,19.08148 39.30922,19.08148c0,0 28.95972,-27.70278 38.00389,-21.57495c9.05359,6.14129 -5.99266,43.29375 -5.99266,43.29375c0,0 35.29671,18.98129 32.24711,29.47598c-3.027,10.4992 -43.01309,7.6747 -43.01309,7.6747c0,0 -7.15057,39.44095 -18.08331,39.77716z" fill="#ff0000" fill-rule="nonzero" stroke="none" stroke-width="0" stroke-linecap="butt" stroke-linejoin="miter"/><path d="M192.54557,59.34829c-8.86011,0.28178 -16.7062,-31.28671 -16.7062,-31.28671c0,0 -32.24688,4.37378 -35.2554,-3.96976c-3.01368,-8.34614 24.59654,-25.56706 24.59654,-25.56706c0,0 -14.12011,-29.3162 -7.11547,-34.75494c7.0077,-5.44418 31.91348,15.49144 31.91348,15.49144c0,0 23.51118,-22.49072 30.85375,-17.51578c7.35022,4.98585 -4.86518,35.14837 -4.86518,35.14837c0,0 28.65589,15.41009 26.18007,23.93028c-2.45749,8.52386 -34.9205,6.23077 -34.9205,6.23077c0,0 -5.80524,32.02042 -14.68108,32.29338z" fill="#ffb500" fill-rule="nonzero" stroke="none" stroke-width="0" stroke-linecap="butt" stroke-linejoin="miter"/><path d="M190.70931,32.42978c-4.45926,0.13815 -8.40228,-15.7323 -8.40228,-15.7323c0,0 -16.20256,2.20037 -17.71257,-1.99158c-1.50982,-4.19183 12.35571,-12.84337 12.35571,-12.84337c0,0 -7.08554,-14.73402 -3.57346,-17.46486c3.52057,-2.73323 16.03084,7.78387 16.03084,7.78387c0,0 11.81842,-11.3023 15.50857,-8.7939c3.68817,2.50012 -2.45487,17.65044 -2.45487,17.65044c0,0 14.40446,7.75119 13.16282,12.02972c-1.2339,4.28977 -17.53969,3.13558 -17.53969,3.13558c0,0 -2.92611,16.08248 -7.37508,16.2264z" fill="#e2ff00" fill-rule="nonzero" stroke="none" stroke-width="2.57572" stroke-linecap="butt" stroke-linejoin="miter"/><path d="M191.04237,20.61999c-2.70337,0.08375 -5.09379,-9.53752 -5.09379,-9.53752c0,0 -9.8226,1.33395 -10.73803,-1.20737c-0.91531,-2.54125 7.49051,-7.78616 7.49051,-7.78616c0,0 -4.29553,-8.93233 -2.16638,-10.58787c2.13431,-1.657 9.71852,4.71888 9.71852,4.71888c0,0 7.16478,-6.8519 9.40189,-5.33121c2.2359,1.51566 -1.48824,10.70037 -1.48824,10.70037c0,0 8.73255,4.69906 7.97982,7.29288c-0.74803,2.60062 -10.63323,1.90092 -10.63323,1.90092c0,0 -1.77392,9.74983 -4.47106,9.83707z" fill="#ffffff" fill-rule="nonzero" stroke="none" stroke-width="2.57572" stroke-linecap="butt" stroke-linejoin="miter"/><path d="M145.43937,170.54636v-181.5451h80.00293v181.5451z" fill="#000000" fill-rule="nonzero" stroke="#000000" stroke-width="2" stroke-linecap="butt" stroke-linejoin="miter"/><path d="M184.20843,5.33718v-27.69332h4.61555v27.69332z" fill="#000000" fill-rule="nonzero" stroke="#000000" stroke-width="2" stroke-linecap="butt" stroke-linejoin="miter"/><path d="M184.50558,-20.62989c0,-1.30737 1.05983,-2.3672 2.3672,-2.3672c1.30737,0 2.3672,1.05983 2.3672,2.3672c0,1.30737 -1.05983,2.3672 -2.3672,2.3672c-1.30737,0 -2.3672,-1.05983 -2.3672,-2.3672z" fill="#ffffff" fill-rule="nonzero" stroke="none" stroke-width="0" stroke-linecap="butt" stroke-linejoin="miter"/><path d="M207.29558,233.42435c-11.71908,-12.17347 -26.95066,-31.86528 -42.48737,-50.29754c-25.99625,-30.30058 -59.13441,-91.66794 9.33589,-99.08269c54.95932,-6.68753 91.75922,39.56518 136.46055,91.73257c22.52273,28.1256 49.16824,61.25043 28.37277,97.5503c-23.2756,41.03294 -115.50819,152.03625 -179.7521,92.46744c-45.31163,-49.64828 8.19326,-83.35775 44.4475,-111.91208c5.30438,-5.38234 5.8757,-13.2448 3.62276,-20.45801z" data-paper-data="{&quot;index&quot;:null}" fill="#ffab19" fill-rule="evenodd" stroke="#001026" stroke-width="8.5" stroke-linecap="round" stroke-linejoin="round"/><path d="M141.06778,238.42435c-2.25294,7.21321 -1.68162,15.07567 3.62276,20.45801c36.25424,28.55433 89.75913,62.2638 44.4475,111.91208c-64.24391,59.56881 -156.4765,-51.4345 -179.7521,-92.46744c-20.79547,-36.29987 5.85004,-69.4247 28.37277,-97.5503c44.70133,-52.16739 81.50123,-98.4201 136.46055,-91.73257c68.4703,7.41475 35.33214,68.78211 9.33589,99.08269c-15.53671,18.43226 -30.76829,38.12407 -42.48737,50.29754z" data-paper-data="{&quot;index&quot;:null}" fill="#ffab19" fill-rule="evenodd" stroke="#001026" stroke-width="8.5" stroke-linecap="round" stroke-linejoin="round"/><path d="M136.00099,31.89186v-44.43443h105.29026v44.43443z" fill="#000000" fill-rule="nonzero" stroke="none" stroke-width="0" stroke-linecap="butt" stroke-linejoin="miter"/></g></g></svg>