<svg version="1.1" xmlns="http://www.w3.org/2000/svg" xmlns:xlink="http://www.w3.org/1999/xlink" width="491.55712" height="365.86611" viewBox="0,0,491.55712,365.86611"><g transform="translate(6.30156,1.00203)"><g data-paper-data="{&quot;isPaintingLayer&quot;:true}" stroke-miterlimit="10" stroke-dasharray="" stroke-dashoffset="0" style="mix-blend-mode: normal"><path d="M0.05003,0h480.9419v290l-479.98805,-15z" fill="#99ffff" fill-rule="nonzero" stroke="#ccffff" stroke-width="2.00406" stroke-linecap="butt" stroke-linejoin="miter"/><path d="M444.99123,247.42646c12.05256,-0.53468 25.61835,4.24571 33.00294,13.54706c7.86306,9.85909 5.7085,24.56341 5.04412,37.03823c0.32427,12.83656 1.65303,27.53944 -6.05294,37.975c-7.11941,9.66597 -20.08712,16.72053 -31.99412,16.64559c-17.7135,-0.11097 -37.89573,-5.89441 -50.93982,-15.41626c-13.04409,-9.52329 -21.119,-22.67403 -21.119,-37.18667c0,-14.51265 8.07491,-27.66338 21.119,-37.18668c13.04409,-9.52185 33.23929,-14.64523 50.93982,-15.41626z" fill="#00cc44" fill-rule="nonzero" stroke="#00cc44" stroke-width="2.88235" stroke-linecap="butt" stroke-linejoin="miter"/><path d="M80.01766,237.57646c15.41794,0 29.38853,3.84941 39.50435,10.06776c10.11582,6.21929 16.378,14.80753 16.378,24.28518c0,9.47765 -6.26218,18.06588 -16.378,24.28517c-10.11582,6.21835 -24.08641,10.06776 -39.50435,10.06776c-15.41794,0 -29.38853,-3.84941 -39.50435,-10.06776c-10.11582,-6.21929 -16.378,-14.80753 -16.378,-24.28517c0,-9.47765 6.26218,-18.06588 16.378,-24.28518c10.11582,-6.21835 24.08641,-10.06776 39.50435,-10.06776z" fill="#00cc44" fill-rule="nonzero" stroke="#00cc44" stroke-width="2.06637" stroke-linecap="butt" stroke-linejoin="miter"/><path d="M193.4912,229.87646c19.88103,0 37.89573,5.89441 50.93982,15.41627c13.04409,9.52329 21.119,22.67403 21.119,37.18668c0,14.51265 -8.07491,27.66338 -21.119,37.18667c-13.04409,9.52185 -31.05879,15.41626 -50.93982,15.41626c-19.88103,0 -37.89573,-5.89441 -50.93982,-15.41626c-13.04409,-9.52329 -21.119,-22.67403 -21.119,-37.18667c0,-14.51265 8.07491,-27.66338 21.119,-37.18668c13.04409,-9.52185 31.05879,-15.41627 50.93982,-15.41627z" fill="#00cc44" fill-rule="nonzero" stroke="#00cc44" stroke-width="2.88235" stroke-linecap="butt" stroke-linejoin="miter"/><path d="M321.49118,237.87646c19.88103,0 37.89573,5.89441 50.93982,15.41627c13.04409,9.52329 21.119,22.67403 21.119,37.18668c0,14.51265 -8.07491,27.66338 -21.119,37.18667c-13.04409,9.52185 -31.05879,15.41626 -50.93982,15.41626c-19.88103,0 -37.89573,-5.89441 -50.93982,-15.41626c-13.04409,-9.52329 -21.119,-22.67403 -21.119,-37.18667c0,-14.51265 8.07491,-27.66338 21.119,-37.18668c13.04409,-9.52185 31.05879,-15.41627 50.93982,-15.41627z" fill="#00cc44" fill-rule="nonzero" stroke="#00cc44" stroke-width="2.88235" stroke-linecap="butt" stroke-linejoin="miter"/><path d="M-2.00185,244.99704c5.94523,-3.21318 16.1986,10.32094 22.58866,19.19718c4.81531,6.67388 10.26528,14.98541 10.26528,24.28518c0,9.29976 -4.03214,20.24659 -10.26528,24.28517l-20.5922,-3.76753l-0.98071,-34.9647c-0.32153,-11.64329 -5.85697,-27.32894 -1.01574,-29.03529z" fill="#00cc44" fill-rule="nonzero" stroke="#00cc44" stroke-width="1.65923" stroke-linecap="butt" stroke-linejoin="miter"/><path d="M2,279l470,-3l8,60l-480,5z" fill="#00cc44" fill-rule="nonzero" stroke="#00cc44" stroke-width="2" stroke-linecap="butt" stroke-linejoin="miter"/><path d="M-4.9875,338.61669h484.97502v24.93333h-484.97502z" fill="#663b00" fill-rule="nonzero" stroke="#663b00" stroke-width="2.62812" stroke-linecap="butt" stroke-linejoin="miter"/><path d="M360.43027,237.55002c0,40.04064 -8.93589,72.5 -19.95887,72.5c-11.02298,0 -19.95887,-32.45936 -19.95887,-72.5c0,-40.04064 8.93589,-72.5 19.95887,-72.5c11.02298,0 19.95887,32.45936 19.95887,72.5z" fill="#a90000" fill-rule="nonzero" stroke="#000000" stroke-width="2" stroke-linecap="butt" stroke-linejoin="miter"/><g fill-rule="evenodd" stroke-width="2.5"><path d="M76.35583,292.54424c1.27174,0.63587 3.97418,2.06657 0.15897,7.47145c-3.81521,5.40488 -14.78394,6.51765 -16.05568,6.51765c-4.92798,0.15897 -10.96873,0.15897 -17.64535,-2.06657c-19.39398,-6.35868 -19.55295,-27.18337 -13.35324,-30.52168c6.04075,-3.33831 8.74319,9.53803 17.48638,17.32741c3.81521,3.49728 8.42526,4.76901 12.24047,5.56385c5.40488,0.9538 15.73774,-5.08695 17.16845,-4.29211z" fill="#ffab19" stroke="#001026" stroke-linecap="round" stroke-linejoin="round"/><path d="M36.93198,279.6679c2.54347,4.29211 7.47145,10.33286 7.47145,10.33286c0,0 -5.88178,-1.4307 -9.22009,1.27174c-2.70244,2.06657 -2.06657,5.56385 -1.74864,6.67662c-2.06657,-2.06657 -4.61005,-4.92798 -6.19972,-10.49183c-1.58967,-5.56385 0,-12.24047 3.17934,-13.19427c3.17934,-0.63587 3.97418,1.74864 6.51765,5.40488z" fill="#ffffff" stroke="none" stroke-linecap="butt" stroke-linejoin="miter"/></g><path d="M84.30418,309.07682c-2.86141,1.90761 -12.71737,8.90216 -25.27577,12.87633l-0.63587,0.15897c-0.63587,0.15897 -0.9538,0.9538 -0.63587,1.58967c2.70244,3.81521 7.63042,11.44563 -1.11277,14.14807c-8.42526,2.70244 -24.163,-19.71192 -17.48638,-25.5937c3.02037,-2.22554 5.72282,-1.11277 7.15352,-0.4769c0.79484,0.31793 1.58967,0.31793 2.38451,0.15897c1.90761,-0.63587 5.40488,-1.90761 8.10732,-3.33831c6.83558,-3.49728 8.42526,-4.92798 11.6046,-7.31249c3.17934,-2.38451 10.49183,-8.26629 16.37361,-3.17934c5.08695,4.29211 2.22554,9.06112 -0.4769,10.96873z" fill="#ffab19" fill-rule="evenodd" stroke="#001026" stroke-width="2.5" stroke-linecap="round" stroke-linejoin="round"/><g fill-rule="evenodd" stroke-width="2.5"><path d="M109.73892,313.05099c3.33831,3.02037 10.65079,9.22009 10.65079,9.22009c0,0 22.73229,-3.97418 22.73229,7.47145c0,6.83558 -11.44563,8.42526 -26.86544,6.99455c-0.9538,-0.15897 -1.90761,-0.4769 -2.70244,-1.11277c-3.49728,-3.02037 -13.5122,-11.92253 -19.87089,-18.12225c-9.37906,-9.22009 -17.16845,-15.26084 -17.16845,-15.26084c-13.5122,-13.19427 -2.54347,-18.75812 1.74864,-26.38854c3.97418,-6.51765 5.72282,-5.24591 15.26084,-3.33831c5.40488,0.79484 8.58422,1.27174 12.0815,1.11277c5.24591,-0.15897 4.29211,7.47145 2.86141,11.44563c0,0 -2.22554,5.88178 -4.29211,8.90216c-2.54347,3.65624 -4.45108,6.04075 -6.35868,7.47145z" fill="#ffab19" stroke="#001026" stroke-linecap="round" stroke-linejoin="round"/><path d="M96.38569,301.28743c0,0 -2.38451,-1.90761 -4.92798,-4.29211c-3.17934,-2.86141 -6.35868,-5.24591 -3.17934,-10.17389c2.86141,-3.81521 5.56385,-8.90216 12.71737,-4.29211c6.83558,4.29211 3.81521,8.26629 3.81521,8.26629c-3.49728,7.15352 -8.42526,10.49183 -8.42526,10.49183z" fill="#ffffff" stroke="none" stroke-linecap="butt" stroke-linejoin="miter"/></g><g fill-rule="evenodd" stroke-width="2.5"><path d="M122.45629,181.10831c0.4769,-0.31793 1.27174,-0.15897 1.4307,0.4769l4.13314,17.00948c0,0 10.17389,7.47145 13.19427,12.71737c5.08695,8.74319 5.24591,15.89671 5.24591,15.89671c0,0 11.28666,3.33831 13.19427,12.39943c1.90761,9.06112 -5.08695,26.22957 -34.97276,32.11135c-29.88581,5.88178 -53.88984,-2.22554 -65.1765,-20.34779c-11.28666,-18.12225 6.51765,-39.74177 5.56385,-38.47003l-3.33831,-28.45511c-0.15897,-0.63587 0.63587,-1.11277 1.27174,-0.79484l19.23502,12.5584c0,0 7.15352,-2.70244 14.62497,-3.02037c4.45108,-0.31793 8.26629,0 11.92253,0.63587z" fill="#ffab19" stroke="#001026" stroke-linecap="butt" stroke-linejoin="miter"/><path d="M145.98341,227.84463c0,0 10.96873,2.86141 12.87633,11.92253c1.90761,9.06112 -5.72282,25.43473 -35.29069,31.15755c-38.47003,7.94835 -56.75125,-14.94291 -46.10045,-31.79342c10.65079,-17.00948 28.93201,-2.54347 42.28524,-3.49728c11.44563,-0.79484 12.71737,-10.80976 26.22957,-7.78939z" fill="#ffffff" stroke="none" stroke-linecap="butt" stroke-linejoin="miter"/><path d="M95.90879,244.85411c0,-0.63587 0.63587,-1.11277 1.27174,-0.9538c3.02037,1.11277 11.6046,3.65624 21.14262,4.29211c8.58422,0.4769 13.67117,0 16.05568,-0.4769c0.79484,-0.15897 1.4307,0.63587 1.11277,1.4307c-1.4307,4.29211 -7.47145,16.21464 -24.163,15.26084c-14.466,-1.58967 -15.89671,-11.76356 -15.41981,-19.55295z" fill="#ffffff" stroke="#001026" stroke-linecap="round" stroke-linejoin="round"/><path d="M175.23337,229.59327c-7.47145,6.04075 -18.91708,6.19972 -18.91708,6.19972" fill="none" stroke="#001026" stroke-linecap="round" stroke-linejoin="round"/><path d="M173.16679,247.39759c-10.01493,0.79484 -16.21464,-2.22554 -16.21464,-2.22554" fill="none" stroke="#001026" stroke-linecap="round" stroke-linejoin="round"/><path d="M119.11797,231.50088c3.33831,0 6.83558,0.31793 6.99455,1.4307c0.15897,2.22554 -2.22554,6.67662 -4.76901,6.83558c-2.86141,0.31793 -9.53803,-3.65624 -9.53803,-6.19972c-0.15897,-1.90761 4.13314,-2.06657 7.31249,-2.06657z" fill="#001026" stroke="#001026" stroke-linecap="round" stroke-linejoin="round"/><path d="M47.58278,229.11637c0,0 13.67117,4.45108 19.23502,9.37906" fill="none" stroke="#001026" stroke-linecap="round" stroke-linejoin="round"/><path d="M67.2947,244.05928c-6.83558,2.70244 -18.59915,0.9538 -18.59915,0.9538" fill="none" stroke="#001026" stroke-linecap="round" stroke-linejoin="round"/><g><path d="M137.87607,212.90173c4.61005,7.15352 4.76901,15.26084 0.31793,18.12225c-4.45108,2.86141 -11.76356,-0.4769 -16.53258,-7.63042c-4.61005,-7.15352 -4.76901,-15.26084 -0.31793,-18.12225c4.45108,-3.02037 11.92253,0.4769 16.53258,7.63042z" fill="#ffffff" stroke="#001026" stroke-linecap="round" stroke-linejoin="round"/><path d="M137.24022,221.96285c0,1.74864 -1.27174,3.17934 -2.86141,3.17934c-1.58967,0 -2.86141,-1.4307 -2.86141,-3.17934c0,-1.74864 1.27174,-3.17934 2.86141,-3.17934c1.58967,0 2.86141,1.4307 2.86141,3.17934" fill="#001026" stroke="none" stroke-linecap="butt" stroke-linejoin="miter"/></g><g><path d="M98.45226,217.35281c4.76901,6.99455 4.45108,15.57877 0.15897,18.59915c-5.24591,3.02037 -12.24047,0.79484 -17.00948,-6.19972c-4.92798,-6.99455 -5.24591,-16.05568 -0.31793,-19.55295c4.92798,-3.65624 12.39943,0.15897 17.16845,7.15352z" fill="#ffffff" stroke="#001026" stroke-linecap="round" stroke-linejoin="round"/><path d="M97.49846,226.5729c0,1.74864 -1.27174,3.17934 -2.86141,3.17934c-1.58967,0 -2.86141,-1.4307 -2.86141,-3.17934c0,-1.74864 1.27174,-3.17934 2.86141,-3.17934c1.58967,0.15897 2.86141,1.4307 2.86141,3.17934" fill="#001026" stroke="none" stroke-linecap="butt" stroke-linejoin="miter"/></g></g><path d="M321.83337,237c0,-38.01559 6.64111,-68.83333 14.83333,-68.83333c8.19222,0 14.83333,30.81774 14.83333,68.83333c0,38.01559 -6.64111,68.83333 -14.83333,68.83333c-8.19222,0 -14.83333,-30.81774 -14.83333,-68.83333z" fill="#ff0000" fill-rule="nonzero" stroke="#000000" stroke-width="3" stroke-linecap="butt" stroke-linejoin="miter"/><path d="M326.91612,237c0,-24.98927 4.36549,-45.24709 9.75058,-45.24709c5.3851,0 9.75058,20.25782 9.75058,45.24709c0,24.98927 -4.36549,45.24709 -9.75058,45.24709c-5.3851,0 -9.75058,-20.25782 -9.75058,-45.24709z" fill="#ffffff" fill-rule="nonzero" stroke="none" stroke-width="0" stroke-linecap="butt" stroke-linejoin="miter"/><path d="M329.76867,237c0,-17.67858 3.08835,-32.00989 6.89802,-32.00989c3.80967,0 6.89802,14.33131 6.89802,32.00989c0,17.67858 -3.08835,32.00991 -6.89802,32.00991c-3.80967,0 -6.89802,-14.33131 -6.89802,-32.00991z" fill="#ff0000" fill-rule="nonzero" stroke="none" stroke-width="0" stroke-linecap="butt" stroke-linejoin="miter"/><path d="M332.41378,237c0,-10.89958 1.90409,-19.73543 4.25291,-19.73543c2.34882,0 4.25291,8.83585 4.25291,19.73543c0,10.89958 -1.90409,19.73543 -4.25291,19.73543c-2.34882,0 -4.25291,-8.83585 -4.25291,-19.73543z" fill="#ffffff" fill-rule="nonzero" stroke="none" stroke-width="0" stroke-linecap="butt" stroke-linejoin="miter"/><path d="M92.40467,302.02621l-0.82791,-16.36469l9.46084,-0.47863l0.82791,16.36469z" fill="#000000" fill-rule="nonzero" stroke="none" stroke-width="NaN" stroke-linecap="butt" stroke-linejoin="miter"/><path d="M90.10519,290.02736c5.63454,0.54321 13.39111,0.47474 12.00655,8.60252c-2.68066,10.40675 -19.55837,5.0661 -24.68082,2.37464c-4.55271,-2.36744 -3.99901,-7.55246 -3.53935,-11.94824c1.15456,-8.34728 1.88582,-15.56033 8.00099,-18.51389c7.5577,-3.77426 8.20641,4.75584 7.53248,9.60636c-0.38136,2.93227 -0.64772,5.97428 -1.05005,8.00754c0.24572,0.89377 0.82595,1.6673 1.7302,1.87108z" fill="#ffab19" fill-rule="evenodd" stroke="#001026" stroke-width="2.5" stroke-linecap="round" stroke-linejoin="round"/><path d="M91.78376,289.75269l-0.41395,-8.18235l31.1952,-1.57819l0.41395,8.18235z" fill="#000000" fill-rule="nonzero" stroke="none" stroke-width="0" stroke-linecap="butt" stroke-linejoin="miter"/><path d="M120.44239,284.57586l-0.34927,-6.90386l1.12507,-0.05692l0.34926,6.90386z" fill="#000000" fill-rule="nonzero" stroke="none" stroke-width="0" stroke-linecap="butt" stroke-linejoin="miter"/><path d="M259.87872,257.27775l-0.5358,-6.29565l20.14609,-1.71456l0.53579,6.29565z" fill="#ffe100" fill-rule="nonzero" stroke="#00cc44" stroke-width="0" stroke-linecap="butt" stroke-linejoin="miter"/><path d="M11.70083,137.5v-126.07143h451.07143v126.07143z" fill="#a3a3a3" fill-rule="nonzero" stroke="none" stroke-width="0" stroke-linecap="butt" stroke-linejoin="miter"/><path d="M6.70082,132.5v-126.07143h451.07143v126.07143z" fill="#b5b5b5" fill-rule="nonzero" stroke="none" stroke-width="0" stroke-linecap="butt" stroke-linejoin="miter"/><text transform="translate(21.16344,67.40199) scale(1.33578,1.33578)" font-size="40" xml:space="preserve" fill="#000000" fill-rule="nonzero" stroke="none" stroke-width="1" stroke-linecap="butt" stroke-linejoin="miter" stroke-miterlimit="10" stroke-dasharray="" stroke-dashoffset="0" font-family="Sans Serif" font-weight="normal" text-anchor="start" style="mix-blend-mode: normal"><tspan x="0" dy="0">Target Practice 3</tspan></text><text transform="translate(25.98653,104.64286) scale(0.59286,0.59286)" font-size="40" xml:space="preserve" fill="#000000" fill-rule="nonzero" stroke="none" stroke-width="1" stroke-linecap="butt" stroke-linejoin="miter" stroke-miterlimit="10" stroke-dasharray="" stroke-dashoffset="0" font-family="Sans Serif" font-weight="normal" text-anchor="start" style="mix-blend-mode: normal"><tspan x="0" dy="0">By Owen2600</tspan></text></g></g></svg>