<svg version="1.1" xmlns="http://www.w3.org/2000/svg" xmlns:xlink="http://www.w3.org/1999/xlink" width="342.98448" height="413.64692" viewBox="0,0,342.98448,413.64692"><g transform="translate(-7.75197,26.39984)"><g data-paper-data="{&quot;isPaintingLayer&quot;:true}" stroke-miterlimit="10" stroke-dasharray="" stroke-dashoffset="0" style="mix-blend-mode: normal"><path d="M151.15276,127.94592c-2.23067,7.22013 -1.63509,15.08079 3.68587,20.44673c36.34218,28.44233 89.95083,61.98654 44.79261,111.7744c-64.0598,59.76676 -156.63446,-50.95142 -180.03656,-91.91235c-20.90737,-36.23553 5.63579,-69.44242 28.07163,-97.63738c44.54014,-52.30507 81.19715,-98.67111 136.17685,-92.1532c68.49286,7.20344 35.54421,68.67276 9.64158,99.05341c-15.47976,18.48011 -30.6505,38.21883 -42.33197,50.42841z" data-paper-data="{&quot;index&quot;:null}" fill="#ffab19" fill-rule="evenodd" stroke="#001026" stroke-width="8.5" stroke-linecap="round" stroke-linejoin="round"/><path d="M145.43937,170.54636v-181.5451h80.00293v181.5451z" fill="#000000" fill-rule="nonzero" stroke="#000000" stroke-width="2" stroke-linecap="butt" stroke-linejoin="miter"/><path d="M184.20843,5.33718v-27.69332h4.61555v27.69332z" fill="#000000" fill-rule="nonzero" stroke="#000000" stroke-width="2" stroke-linecap="butt" stroke-linejoin="miter"/><path d="M184.50558,-20.6299c0,-1.30737 1.05983,-2.3672 2.3672,-2.3672c1.30737,0 2.3672,1.05983 2.3672,2.3672c0,1.30737 -1.05983,2.3672 -2.3672,2.3672c-1.30737,0 -2.3672,-1.05983 -2.3672,-2.3672z" fill="#ffffff" fill-rule="nonzero" stroke="none" stroke-width="0" stroke-linecap="butt" stroke-linejoin="miter"/><path d="M207.29558,233.42435c-11.71908,-12.17347 -26.95066,-31.86528 -42.48737,-50.29754c-25.99625,-30.30058 -59.13441,-91.66794 9.33589,-99.08269c54.95932,-6.68753 91.75922,39.56518 136.46055,91.73257c22.52273,28.1256 49.16824,61.25043 28.37277,97.5503c-23.2756,41.03294 -115.50819,152.03625 -179.7521,92.46744c-45.31163,-49.64828 8.19326,-83.35775 44.4475,-111.91208c5.30438,-5.38234 5.8757,-13.2448 3.62276,-20.45801z" data-paper-data="{&quot;index&quot;:null}" fill="#ffab19" fill-rule="evenodd" stroke="#001026" stroke-width="8.5" stroke-linecap="round" stroke-linejoin="round"/><path d="M142.25099,20.38385v-35.4264h88.94516v35.4264z" fill="#000000" fill-rule="nonzero" stroke="none" stroke-width="0" stroke-linecap="butt" stroke-linejoin="miter"/></g></g></svg>