<svg version="1.1" xmlns="http://www.w3.org/2000/svg" xmlns:xlink="http://www.w3.org/1999/xlink" width="305.03721" height="362.96974" viewBox="0,0,305.03721,362.96974"><g transform="translate(26.13142,-13.79896)"><g data-paper-data="{&quot;isPaintingLayer&quot;:true}" stroke-miterlimit="10" stroke-dasharray="" stroke-dashoffset="0" style="mix-blend-mode: normal"><path d="M108.54182,232.3452c-2.09077,6.76728 -1.53253,14.13492 3.45469,19.16431c34.06279,26.65843 84.30911,58.09874 41.98321,104.76389c-60.04196,56.01818 -146.81032,-47.75575 -168.74465,-86.14758c-19.59606,-33.96283 5.28231,-65.08698 26.31098,-91.51355c41.74658,-49.02448 76.10446,-92.48245 127.63582,-86.37334c64.19697,6.75164 33.31486,64.3656 9.03685,92.84076c-14.50886,17.32104 -28.72809,35.82175 -39.67691,47.26553z" data-paper-data="{&quot;index&quot;:null}" fill="#ffab19" fill-rule="evenodd" stroke="#001026" stroke-width="8.5" stroke-linecap="round" stroke-linejoin="round"/><path d="M194.91368,79.37176v-17.06126h59.43921v17.06126z" fill="#5c5c5c" fill-rule="nonzero" stroke="none" stroke-width="0" stroke-linecap="butt" stroke-linejoin="miter"/><path d="M148.54497,130.26831v-106.71106h75.73343v106.71106z" fill="#090909" fill-rule="nonzero" stroke="none" stroke-width="0" stroke-linecap="butt" stroke-linejoin="miter"/><path d="M201.74508,350.42883v-306.13197h0.60988l76.55082,306.13197z" fill="#000000" fill-rule="nonzero" stroke="none" stroke-width="NaN" stroke-linecap="butt" stroke-linejoin="miter"/><path d="M88.50636,350.5517l77.55826,-305.19452h0.61791v305.19452z" data-paper-data="{&quot;index&quot;:null}" fill="#000000" fill-rule="nonzero" stroke="none" stroke-width="NaN" stroke-linecap="butt" stroke-linejoin="miter"/><path d="M161.24584,350.6453v-304.67084h53.40041v304.67084z" fill="#000000" fill-rule="nonzero" stroke="none" stroke-width="0" stroke-linecap="butt" stroke-linejoin="miter"/><path d="M141.39931,30.75383v-16.86334h35.07865v16.86334z" fill="#090909" fill-rule="nonzero" stroke="none" stroke-width="0" stroke-linecap="butt" stroke-linejoin="miter"/><path d="M197.41567,30.6623v-16.86334h35.07864v16.86334z" fill="#090909" fill-rule="nonzero" stroke="none" stroke-width="0" stroke-linecap="butt" stroke-linejoin="miter"/><path d="M185.00362,41.62105v-23.11082h3.29804v23.11082z" fill="#090909" fill-rule="nonzero" stroke="none" stroke-width="0" stroke-linecap="butt" stroke-linejoin="miter"/></g></g></svg>