<svg version="1.1" xmlns="http://www.w3.org/2000/svg" xmlns:xlink="http://www.w3.org/1999/xlink" width="107" height="51.5" viewBox="0,0,107,51.5"><g transform="translate(-212.75,-153.92391)"><g data-paper-data="{&quot;isPaintingLayer&quot;:true}" fill-rule="nonzero" stroke-linecap="butt" stroke-linejoin="miter" stroke-miterlimit="10" stroke-dasharray="" stroke-dashoffset="0" style="mix-blend-mode: normal"><path d="M215.5,202.67392v-46h101.5v46z" fill="#ffffff" stroke="#000000" stroke-width="5.5"/><path d="M277.99727,180.82165v-8.70174h7.34086v8.70174z" fill="#868686" stroke="none" stroke-width="0"/><path d="M278.89308,186.58187l-0.85091,-5.8713l7.29946,-1.05789l0.85091,5.8713z" fill="#868686" stroke="none" stroke-width="0"/><path d="M279.83251,190.62087l-0.83732,-4.37826l7.26605,-1.3896l0.83732,4.37826z" fill="#868686" stroke="none" stroke-width="0"/><path d="M237.02938,173.92608v-8.92857h61.96428v8.92857z" fill="#000000" stroke="none" stroke-width="0"/><path d="M220.85846,183.55321l15.28034,-18.86076l6.94561,8.57307l-15.28034,18.86077z" fill="#000000" stroke="none" stroke-width="0"/><path d="M241.9038,167.4975v-4.19355h1.12903v4.19355z" fill="#000000" stroke="none" stroke-width="0"/><path d="M296.25864,166.36847v-2.41935h0.64516v2.41935z" fill="#000000" stroke="none" stroke-width="0"/><path d="M243.77007,182.46649l2.00977,-13.39849l3.66863,0.5503l-2.00977,13.39849z" fill="#000000" stroke="none" stroke-width="0"/><path d="M230.61263,179.10473l16.8253,0.16592l-0.05643,3.7094l-16.82529,-0.16591z" fill="#000000" stroke="none" stroke-width="0"/><path d="M265.47281,185.55265v-15.2h4.22222v15.2z" fill="#000000" stroke="none" stroke-width="0"/></g></g></svg>