<svg version="1.1" xmlns="http://www.w3.org/2000/svg" xmlns:xlink="http://www.w3.org/1999/xlink" width="354.85948" height="410.60322" viewBox="0,0,354.85948,410.60322"><g transform="translate(4.12303,23.35614)"><g data-paper-data="{&quot;isPaintingLayer&quot;:true}" stroke-miterlimit="10" stroke-dasharray="" stroke-dashoffset="0" style="mix-blend-mode: normal"><path d="M146.2328,147.94799c-2.34217,7.581 -1.71681,15.83456 3.87009,21.4687c38.15863,29.86394 94.44676,65.08475 47.03143,117.3611c-67.26164,62.75402 -164.46335,-53.49808 -189.03515,-96.5063c-21.95236,-38.04665 5.91748,-72.91329 29.47471,-102.51749c46.76635,-54.91937 85.25555,-103.60289 142.98324,-96.7592c71.91626,7.56348 37.32077,72.10517 10.12348,104.00429c-16.25346,19.40379 -32.18247,40.12909 -44.44781,52.94892z" data-paper-data="{&quot;index&quot;:null}" fill="#ffab19" fill-rule="evenodd" stroke="#001026" stroke-width="8.5" stroke-linecap="round" stroke-linejoin="round"/><path d="M145.43937,170.54636v-181.5451h80.00293v181.5451z" fill="#000000" fill-rule="nonzero" stroke="#000000" stroke-width="2" stroke-linecap="butt" stroke-linejoin="miter"/><path d="M184.20843,5.33718v-27.69332h4.61555v27.69332z" fill="#000000" fill-rule="nonzero" stroke="#000000" stroke-width="2" stroke-linecap="butt" stroke-linejoin="miter"/><path d="M184.50558,-20.6299c0,-1.30737 1.05983,-2.3672 2.3672,-2.3672c1.30737,0 2.3672,1.05983 2.3672,2.3672c0,1.30737 -1.05983,2.3672 -2.3672,2.3672c-1.30737,0 -2.3672,-1.05983 -2.3672,-2.3672z" fill="#ffffff" fill-rule="nonzero" stroke="none" stroke-width="0" stroke-linecap="butt" stroke-linejoin="miter"/><path d="M207.29558,233.42435c-11.71908,-12.17347 -26.95066,-31.86528 -42.48737,-50.29754c-25.99625,-30.30058 -59.13441,-91.66794 9.33589,-99.08269c54.95932,-6.68753 91.75922,39.56518 136.46055,91.73257c22.52273,28.1256 49.16824,61.25043 28.37277,97.5503c-23.2756,41.03294 -115.50819,152.03625 -179.7521,92.46744c-45.31163,-49.64828 8.19326,-83.35775 44.4475,-111.91208c5.30438,-5.38234 5.8757,-13.2448 3.62276,-20.45801z" data-paper-data="{&quot;index&quot;:null}" fill="#ffab19" fill-rule="evenodd" stroke="#001026" stroke-width="8.5" stroke-linecap="round" stroke-linejoin="round"/><path d="M134.75099,35.43543v-45.47801h107.76308v45.47801z" fill="#000000" fill-rule="nonzero" stroke="none" stroke-width="0" stroke-linecap="butt" stroke-linejoin="miter"/></g></g></svg>