<svg version="1.1" xmlns="http://www.w3.org/2000/svg" xmlns:xlink="http://www.w3.org/1999/xlink" width="353.10954" height="448.70426" viewBox="0,0,353.10954,448.70426"><g transform="translate(2.37309,56.45717)"><g data-paper-data="{&quot;isPaintingLayer&quot;:true}" stroke-miterlimit="10" stroke-dasharray="" stroke-dashoffset="0" style="mix-blend-mode: normal"><path d="M158.27636,67.56855c-9.81741,-4.77921 -0.2456,-43.68637 -0.2456,-43.68637c0,0 -37.6531,-13.74534 -36.14203,-24.56512c1.50697,-10.82558 41.4822,-13.74265 41.4822,-13.74265c0,0 1.4415,-40.05436 12.19727,-41.9603c10.76224,-1.91012 25.88585,35.20285 25.88585,35.20285c0,0 38.53336,-11.01316 43.67928,-1.37642c5.14798,9.65304 -25.4795,35.51135 -25.4795,35.51135c0,0 22.38246,33.24413 14.79317,41.10805c-7.5714,7.87844 -41.63284,-13.25646 -41.63284,-13.25646c0,0 -24.70833,31.56292 -34.5378,26.76507z" fill="#ff0000" fill-rule="nonzero" stroke="none" stroke-width="0" stroke-linecap="butt" stroke-linejoin="miter"/><path d="M166.58053,57.26253c-7.97034,-3.88004 -0.19939,-35.46711 -0.19939,-35.46711c0,0 -30.56897,-11.15926 -29.34218,-19.94338c1.22344,-8.78883 33.67765,-11.15708 33.67765,-11.15708c0,0 1.17029,-32.51842 9.90245,-34.06578c8.7374,-1.55075 21.01562,28.57969 21.01562,28.57969c0,0 31.28361,-8.94112 35.46135,-1.11745c4.17943,7.83689 -20.68573,28.83017 -20.68573,28.83017c0,0 18.17137,26.98949 12.00996,33.37387c-6.1469,6.39618 -33.79994,-10.76235 -33.79994,-10.76235c0,0 -20.05963,25.62458 -28.03978,21.72941z" fill="#ffb500" fill-rule="nonzero" stroke="none" stroke-width="0" stroke-linecap="butt" stroke-linejoin="miter"/><path d="M177.50153,32.59049c-4.00973,-1.95605 -0.10175,-17.83517 -0.10175,-17.83517c0,0 -15.36077,-5.60458 -14.74306,-10.01717c0.61783,-4.4124 16.91753,-5.60471 16.91753,-5.60471c0,0 0.59798,-16.33826 4.97804,-17.11754c4.38869,-0.77744 10.55559,14.35814 10.55559,14.35814c0,0 15.72393,-4.49166 17.81974,-0.55251c2.09791,3.9309 -10.39811,14.47217 -10.39811,14.47217c0,0 9.13188,13.57123 6.03928,16.778c-3.09099,3.22032 -16.97966,-5.40033 -16.97966,-5.40033c0,0 -10.08428,12.86529 -14.0876,10.91913z" fill="#e2ff00" fill-rule="nonzero" stroke="none" stroke-width="2.57572" stroke-linecap="butt" stroke-linejoin="miter"/><path d="M183.30027,22.29696c-2.43085,-1.18583 -0.06169,-10.81236 -0.06169,-10.81236c0,0 -9.31228,-3.3977 -8.9378,-6.07279c0.37455,-2.67497 10.25607,-3.3978 10.25607,-3.3978c0,0 0.36252,-9.90488 3.01787,-10.37731c2.6606,-0.47132 6.39921,8.70446 6.39921,8.70446c0,0 9.53246,-2.72302 10.80301,-0.33496c1.27183,2.38305 -6.30374,8.77358 -6.30374,8.77358c0,0 5.53611,8.2274 3.66125,10.17147c-1.87387,1.95228 -10.29373,-3.27388 -10.29373,-3.27388c0,0 -6.11348,7.79944 -8.54045,6.6196z" fill="#ffffff" fill-rule="nonzero" stroke="none" stroke-width="2.57572" stroke-linecap="butt" stroke-linejoin="miter"/><path d="M145.43937,170.54636v-181.5451h80.00293v181.5451z" fill="#000000" fill-rule="nonzero" stroke="#000000" stroke-width="2" stroke-linecap="butt" stroke-linejoin="miter"/><path d="M184.20843,5.33718v-27.69332h4.61555v27.69332z" fill="#000000" fill-rule="nonzero" stroke="#000000" stroke-width="2" stroke-linecap="butt" stroke-linejoin="miter"/><path d="M184.50558,-20.62989c0,-1.30737 1.05983,-2.3672 2.3672,-2.3672c1.30737,0 2.3672,1.05983 2.3672,2.3672c0,1.30737 -1.05983,2.3672 -2.3672,2.3672c-1.30737,0 -2.3672,-1.05983 -2.3672,-2.3672z" fill="#ffffff" fill-rule="nonzero" stroke="none" stroke-width="0" stroke-linecap="butt" stroke-linejoin="miter"/><path d="M207.29558,233.42435c-11.71908,-12.17347 -26.95066,-31.86528 -42.48737,-50.29754c-25.99625,-30.30058 -59.13441,-91.66794 9.33589,-99.08269c54.95932,-6.68753 91.75922,39.56518 136.46055,91.73257c22.52273,28.1256 49.16824,61.25043 28.37277,97.5503c-23.2756,41.03294 -115.50819,152.03625 -179.7521,92.46744c-45.31163,-49.64828 8.19326,-83.35775 44.4475,-111.91208c5.30438,-5.38234 5.8757,-13.2448 3.62276,-20.45801z" data-paper-data="{&quot;index&quot;:null}" fill="#ffab19" fill-rule="evenodd" stroke="#001026" stroke-width="8.5" stroke-linecap="round" stroke-linejoin="round"/><path d="M141.06778,238.42435c-2.25294,7.21321 -1.68162,15.07567 3.62276,20.45801c36.25424,28.55433 89.75913,62.2638 44.4475,111.91208c-64.24391,59.56881 -156.4765,-51.4345 -179.7521,-92.46744c-20.79547,-36.29987 5.85004,-69.4247 28.37277,-97.5503c44.70133,-52.16739 81.50123,-98.4201 136.46055,-91.73257c68.4703,7.41475 35.33214,68.78211 9.33589,99.08269c-15.53671,18.43226 -30.76829,38.12407 -42.48737,50.29754z" data-paper-data="{&quot;index&quot;:null}" fill="#ffab19" fill-rule="evenodd" stroke="#001026" stroke-width="8.5" stroke-linecap="round" stroke-linejoin="round"/><path d="M132.08828,38.14186v-44.61245h105.71209v44.61245z" fill="#000000" fill-rule="nonzero" stroke="none" stroke-width="0" stroke-linecap="butt" stroke-linejoin="miter"/></g></g></svg>