<svg version="1.1" xmlns="http://www.w3.org/2000/svg" xmlns:xlink="http://www.w3.org/1999/xlink" width="546.47255" height="382.33709" viewBox="0,0,546.47255,382.33709"><g transform="translate(30.32951,1.00203)"><g data-paper-data="{&quot;isPaintingLayer&quot;:true}" fill-rule="nonzero" stroke-linejoin="miter" stroke-miterlimit="10" stroke-dasharray="" stroke-dashoffset="0" style="mix-blend-mode: normal"><path d="M0.05001,0h480.9419v355.00592l-479.98805,-18.36238z" fill="#99ffff" stroke="#ccffff" stroke-width="2.00406" stroke-linecap="butt"/><path d="M407.22977,312.58803v-154.8515h16.91211v154.8515z" fill="#a36c00" stroke="none" stroke-width="0" stroke-linecap="butt"/><path d="M87.27307,152.48101l135.70219,135.70219l-14.82072,14.82071l-135.70219,-135.70219z" fill="#a36c00" stroke="none" stroke-width="0" stroke-linecap="butt"/><path d="M71.15188,289.52524l135.70219,-135.70219l14.82072,14.82072l-135.70219,135.70219z" fill="#a36c00" stroke="none" stroke-width="0" stroke-linecap="butt"/><path d="M207.21201,304.94552v-154.8515h16.91211v154.8515z" fill="#a36c00" stroke="none" stroke-width="0" stroke-linecap="butt"/><path d="M70.08615,302.05954v-153.266h16.91211v153.266z" fill="#a36c00" stroke="none" stroke-width="0" stroke-linecap="butt"/><path d="M343.52432,313.36001v-154.8515h16.91211v154.8515z" fill="#a36c00" stroke="none" stroke-width="0" stroke-linecap="butt"/><path d="M276.16092,308.88851v-154.8515h16.91211v154.8515z" fill="#a36c00" stroke="none" stroke-width="0" stroke-linecap="butt"/><path d="M-30.3295,381.33506v-90.90259h546.47255v90.90259z" fill="#029200" stroke="none" stroke-width="0" stroke-linecap="butt"/><path d="M70.85812,148.50851h153.26599v16.91211h-153.26599z" fill="#a36c00" stroke="none" stroke-width="0" stroke-linecap="butt"/><path d="M233.92221,158.83511l18.49762,-39.10925c0,0 40.92908,-47.38079 62.36226,-47.29111c20.64109,0.08637 63.95006,47.81962 63.95006,47.81962l21.66864,38.58075z" fill="#7e5400" stroke="none" stroke-width="0" stroke-linecap="butt"/><path d="M205.15988,158.51449l108.83104,-110.15803l12.03091,11.88598l-108.83104,110.15803z" fill="#a36c00" stroke="none" stroke-width="0" stroke-linecap="butt"/><path d="M412.74348,170.05291l-110.15804,-108.83104l11.88599,-12.03091l110.15803,108.83104z" fill="#a36c00" stroke="none" stroke-width="0" stroke-linecap="butt"/><path d="M215.91152,149.28048h194.48926v16.91211h-194.48926z" fill="#a36c00" stroke="none" stroke-width="0" stroke-linecap="butt"/><path d="M213.77674,192.06847h201.88831v16.91211h-201.88831z" fill="#a36c00" stroke="none" stroke-width="0" stroke-linecap="butt"/><path d="M212.43469,255.73235h71.87646v16.91211h-71.87646z" fill="#a36c00" stroke="none" stroke-width="0" stroke-linecap="butt"/><path d="M346.38953,254.39031h71.87646v16.91211h-71.87646z" fill="#a36c00" stroke="none" stroke-width="0" stroke-linecap="butt"/><path d="M306.24923,137.25078v-35.96285h23.19498v35.96285z" fill="#acffff" stroke="#a36c00" stroke-width="3" stroke-linecap="butt"/><path d="M315.59958,109.56659l-3.46573,3.46573" fill="none" stroke="#ffffff" stroke-width="2.00406" stroke-linecap="round"/><path d="M323.23465,115.17089l-7.85566,7.85566" fill="none" stroke="#ffffff" stroke-width="2.00406" stroke-linecap="round"/><path d="M323.5766,127.77874l-2.77259,2.77259" fill="none" stroke="#ffffff" stroke-width="2.00406" stroke-linecap="round"/></g></g></svg>