<svg version="1.1" xmlns="http://www.w3.org/2000/svg" xmlns:xlink="http://www.w3.org/1999/xlink" width="356.73447" height="413.64693" viewBox="0,0,356.73447,413.64693"><g transform="translate(5.99802,26.39985)"><g data-paper-data="{&quot;isPaintingLayer&quot;:true}" stroke-miterlimit="10" stroke-dasharray="" stroke-dashoffset="0" style="mix-blend-mode: normal"><path d="M146.40339,137.65449c-2.37495,7.68715 -1.74086,16.05626 3.92428,21.76928c38.69288,30.28205 95.76908,65.99599 47.68991,119.00425c-68.20335,63.63263 -166.76598,-54.24709 -191.68178,-97.85747c-22.25971,-38.57933 6.00033,-73.93413 29.88738,-103.95282c47.42111,-55.68829 86.44919,-105.05341 144.98512,-98.11391c72.92315,7.66937 37.8433,73.11469 10.26523,105.46043c-16.48103,19.67545 -32.63305,40.69092 -45.07011,53.69025z" data-paper-data="{&quot;index&quot;:null}" fill="#ffab19" fill-rule="evenodd" stroke="#001026" stroke-width="8.5" stroke-linecap="round" stroke-linejoin="round"/><path d="M145.43937,170.54636v-181.5451h80.00293v181.5451z" fill="#000000" fill-rule="nonzero" stroke="#000000" stroke-width="2" stroke-linecap="butt" stroke-linejoin="miter"/><path d="M184.20843,5.33718v-27.69332h4.61555v27.69332z" fill="#000000" fill-rule="nonzero" stroke="#000000" stroke-width="2" stroke-linecap="butt" stroke-linejoin="miter"/><path d="M184.50558,-20.6299c0,-1.30737 1.05983,-2.3672 2.3672,-2.3672c1.30737,0 2.3672,1.05983 2.3672,2.3672c0,1.30737 -1.05983,2.3672 -2.3672,2.3672c-1.30737,0 -2.3672,-1.05983 -2.3672,-2.3672z" fill="#ffffff" fill-rule="nonzero" stroke="none" stroke-width="0" stroke-linecap="butt" stroke-linejoin="miter"/><path d="M207.29558,233.42435c-11.71908,-12.17347 -26.95066,-31.86528 -42.48737,-50.29754c-25.99625,-30.30058 -59.13441,-91.66794 9.33589,-99.08269c54.95932,-6.68753 91.75922,39.56518 136.46055,91.73257c22.52273,28.1256 49.16824,61.25043 28.37277,97.5503c-23.2756,41.03294 -115.50819,152.03625 -179.7521,92.46744c-45.31163,-49.64828 8.19326,-83.35775 44.4475,-111.91208c5.30438,-5.38234 5.8757,-13.2448 3.62276,-20.45801z" data-paper-data="{&quot;index&quot;:null}" fill="#ffab19" fill-rule="evenodd" stroke="#001026" stroke-width="8.5" stroke-linecap="round" stroke-linejoin="round"/><path d="M136.00099,31.89186v-44.43443h105.29026v44.43443z" fill="#000000" fill-rule="nonzero" stroke="none" stroke-width="0" stroke-linecap="butt" stroke-linejoin="miter"/></g></g></svg>