<svg version="1.1" xmlns="http://www.w3.org/2000/svg" xmlns:xlink="http://www.w3.org/1999/xlink" width="340.43993" height="336.84634" viewBox="0,0,340.43993,336.84634"><g transform="translate(-88.50636,-13.79896)"><g data-paper-data="{&quot;isPaintingLayer&quot;:true}" stroke-miterlimit="10" stroke-dasharray="" stroke-dashoffset="0" style="mix-blend-mode: normal"><path d="M294.27306,187.08018c-10.94882,-11.44378 -25.16805,-29.94449 -39.67691,-47.26553c-24.27801,-28.47516 -55.16012,-86.08912 9.03685,-92.84076c51.53136,-6.10911 85.88924,37.34886 127.63582,86.37334c21.02867,26.42657 45.90704,57.55072 26.31098,91.51355c-21.93433,38.39183 -108.70269,142.16576 -168.74465,86.14758c-42.3259,-46.66515 7.92042,-78.10546 41.98321,-104.76389c4.98722,-5.02939 5.54546,-12.39703 3.45469,-19.16431z" data-paper-data="{&quot;index&quot;:null}" fill="#ffab19" fill-rule="evenodd" stroke="#001026" stroke-width="8.5" stroke-linecap="round" stroke-linejoin="round"/><path d="M194.91368,79.37176v-17.06126h59.43921v17.06126z" fill="#5c5c5c" fill-rule="nonzero" stroke="none" stroke-width="0" stroke-linecap="butt" stroke-linejoin="miter"/><path d="M148.54496,130.26831v-106.71106h75.73343v106.71106z" fill="#090909" fill-rule="nonzero" stroke="none" stroke-width="0" stroke-linecap="butt" stroke-linejoin="miter"/><path d="M201.74508,350.42883v-306.13197h0.60988l76.55082,306.13197z" fill="#000000" fill-rule="nonzero" stroke="none" stroke-width="NaN" stroke-linecap="butt" stroke-linejoin="miter"/><path d="M88.50636,350.5517l77.55826,-305.19452h0.61791v305.19452z" data-paper-data="{&quot;index&quot;:null}" fill="#000000" fill-rule="nonzero" stroke="none" stroke-width="NaN" stroke-linecap="butt" stroke-linejoin="miter"/><path d="M161.24584,350.6453v-304.67084h53.40041v304.67084z" fill="#000000" fill-rule="nonzero" stroke="none" stroke-width="0" stroke-linecap="butt" stroke-linejoin="miter"/><path d="M141.39931,30.75383v-16.86334h35.07865v16.86334z" fill="#090909" fill-rule="nonzero" stroke="none" stroke-width="0" stroke-linecap="butt" stroke-linejoin="miter"/><path d="M197.41567,30.6623v-16.86334h35.07864v16.86334z" fill="#090909" fill-rule="nonzero" stroke="none" stroke-width="0" stroke-linecap="butt" stroke-linejoin="miter"/><path d="M185.00362,41.62105v-23.11082h3.29804v23.11082z" fill="#090909" fill-rule="nonzero" stroke="none" stroke-width="0" stroke-linecap="butt" stroke-linejoin="miter"/></g></g></svg>