<svg version="1.1" xmlns="http://www.w3.org/2000/svg" xmlns:xlink="http://www.w3.org/1999/xlink" width="305.03721" height="409.64456" viewBox="0,0,305.03721,409.64456"><g transform="translate(26.13142,32.87586)"><g data-paper-data="{&quot;isPaintingLayer&quot;:true}" stroke-miterlimit="10" stroke-dasharray="" stroke-dashoffset="0" style="mix-blend-mode: normal"><path d="M108.54182,232.3452c-2.09077,6.76728 -1.53253,14.13493 3.45468,19.16431c34.06279,26.65843 84.30911,58.09874 41.98321,104.76389c-60.04197,56.01818 -146.81032,-47.75574 -168.74465,-86.14758c-19.59605,-33.96283 5.28231,-65.08698 26.31098,-91.51355c41.74658,-49.02448 76.10446,-92.48245 127.63582,-86.37334c64.19697,6.75164 33.31486,64.36561 9.03686,92.84077c-14.50886,17.32104 -28.72809,35.82174 -39.67691,47.26553z" data-paper-data="{&quot;index&quot;:null}" fill="#ffab19" fill-rule="evenodd" stroke="#001026" stroke-width="8.5" stroke-linecap="round" stroke-linejoin="round"/><path d="M127.2225,47.70871c-4.01861,-10.15249 29.30351,-32.40159 29.30351,-32.40159c0,0 -18.50695,-35.55536 -10.08947,-42.51934c8.41837,-6.97103 39.88456,17.85651 39.88456,17.85651c0,0 28.0971,-28.58291 37.32006,-22.73001c9.23055,5.85417 -4.65809,43.44675 -4.65809,43.44675c0,0 35.86645,17.88035 33.15957,28.46431c-2.71637,10.59737 -42.76839,9.00696 -42.76839,9.00696c0,0 -5.92124,39.63692 -16.82882,40.31749c-10.90418,0.70337 -21.77352,-37.88062 -21.77352,-37.88062c0,0 -39.53449,6.61392 -43.54941,-3.56047z" fill="#ff0000" fill-rule="nonzero" stroke="none" stroke-width="0" stroke-linecap="butt" stroke-linejoin="miter"/><path d="M140.30581,45.70861c-3.26254,-8.24238 23.79028,-26.30548 23.79028,-26.30548c0,0 -15.02501,-28.8659 -8.19121,-34.51965c6.83452,-5.65949 32.38059,14.49695 32.38059,14.49695c0,0 22.81083,-23.20524 30.29857,-18.45353c7.49389,4.75275 -3.7817,35.27256 -3.7817,35.27256c0,0 29.11845,14.51631 26.92085,23.10896c-2.2053,8.60355 -34.72186,7.31237 -34.72186,7.31237c0,0 -4.80719,32.17953 -13.66259,32.73206c-8.85265,0.57103 -17.677,-30.75366 -17.677,-30.75366c0,0 -32.09635,5.36956 -35.35592,-2.8906z" fill="#ffb500" fill-rule="nonzero" stroke="none" stroke-width="0" stroke-linecap="butt" stroke-linejoin="miter"/><path d="M165.01594,34.87409c-1.63857,-4.1496 11.96221,-13.2291 11.96221,-13.2291c0,0 -7.55196,-14.50285 -4.11802,-17.34195c3.4339,-2.8389 16.26603,7.28228 16.26603,7.28228c0,0 11.46824,-11.65229 15.22621,-9.27113c3.76309,2.38834 -1.90169,17.71892 -1.90169,17.71892c0,0 14.63407,7.29801 13.52195,11.61918c-1.10501,4.3165 -17.44022,3.66102 -17.44022,3.66102c0,0 -2.42113,16.17738 -6.86745,16.45638c-4.45427,0.29008 -8.88438,-15.44475 -8.88438,-15.44475c0,0 -16.12413,2.68713 -17.76465,-1.45084z" fill="#e2ff00" fill-rule="nonzero" stroke="none" stroke-width="2.57572" stroke-linecap="butt" stroke-linejoin="miter"/><path d="M214.42995,103.13399v-17.06126h59.43921v17.06126z" fill="#5c5c5c" fill-rule="nonzero" stroke="none" stroke-width="0" stroke-linecap="butt" stroke-linejoin="miter"/><path d="M148.54497,130.26831v-106.71106h75.73343v106.71106z" fill="#090909" fill-rule="nonzero" stroke="none" stroke-width="0" stroke-linecap="butt" stroke-linejoin="miter"/><path d="M201.74508,350.42883v-306.13197h0.60988l76.55082,306.13197z" fill="#000000" fill-rule="nonzero" stroke="none" stroke-width="NaN" stroke-linecap="butt" stroke-linejoin="miter"/><path d="M88.50636,350.5517l77.55826,-305.19452h0.61791v305.19452z" data-paper-data="{&quot;index&quot;:null}" fill="#000000" fill-rule="nonzero" stroke="none" stroke-width="NaN" stroke-linecap="butt" stroke-linejoin="miter"/><path d="M161.24584,350.6453v-304.67084h53.40041v304.67084z" fill="#000000" fill-rule="nonzero" stroke="none" stroke-width="0" stroke-linecap="butt" stroke-linejoin="miter"/><path d="M141.39931,30.75383v-16.86334h35.07865v16.86334z" fill="#090909" fill-rule="nonzero" stroke="none" stroke-width="0" stroke-linecap="butt" stroke-linejoin="miter"/><path d="M197.41567,30.6623v-16.86334h35.07864v16.86334z" fill="#090909" fill-rule="nonzero" stroke="none" stroke-width="0" stroke-linecap="butt" stroke-linejoin="miter"/><path d="M185.00362,41.62105v-23.11082h3.29804v23.11082z" fill="#090909" fill-rule="nonzero" stroke="none" stroke-width="0" stroke-linecap="butt" stroke-linejoin="miter"/></g></g></svg>