<svg version="1.1" xmlns="http://www.w3.org/2000/svg" xmlns:xlink="http://www.w3.org/1999/xlink" width="305.03723" height="398.27943" viewBox="0,0,305.03723,398.27943"><g transform="translate(26.13142,21.51073)"><g data-paper-data="{&quot;isPaintingLayer&quot;:true}" stroke-miterlimit="10" stroke-dasharray="" stroke-dashoffset="0" style="mix-blend-mode: normal"><path d="M108.54182,232.3452c-2.09077,6.76728 -1.53253,14.13493 3.45468,19.16431c34.06279,26.65843 84.30911,58.09874 41.98321,104.76389c-60.04197,56.01818 -146.81032,-47.75574 -168.74465,-86.14758c-19.59605,-33.96283 5.28231,-65.08698 26.31098,-91.51355c41.74658,-49.02448 76.10446,-92.48245 127.63582,-86.37334c64.19697,6.75164 33.31486,64.36561 9.03686,92.84077c-14.50886,17.32104 -28.72809,35.82174 -39.67691,47.26553z" data-paper-data="{&quot;index&quot;:null}" fill="#ffab19" fill-rule="evenodd" stroke="#001026" stroke-width="8.5" stroke-linecap="round" stroke-linejoin="round"/><path d="M139.59945,3.15587c4.59951,-7.62499 35.50269,2.9935 35.50269,2.9935c0,0 13.91683,-29.57952 22.59488,-27.56133c8.68305,2.01528 8.13074,34.69882 8.13074,34.69882c0,0 32.42926,4.09841 33.19125,12.97422c0.76492,8.88136 -30.48589,18.45314 -30.48589,18.45314c0,0 6.1292,32.10409 -2.07446,35.5796c-8.21705,3.47597 -26.98222,-23.2915 -26.98222,-23.2915c0,0 -28.63883,15.75062 -34.47169,9.01137c-5.84598,-6.72577 13.81061,-32.84784 13.81061,-32.84784c0,0 -23.83143,-22.37653 -19.21589,-30.00995z" fill="#ff0000" fill-rule="nonzero" stroke="none" stroke-width="0" stroke-linecap="butt" stroke-linejoin="miter"/><path d="M147.36369,10.6543c3.73415,-6.1904 28.82313,2.4303 28.82313,2.4303c0,0 11.2985,-24.01438 18.34383,-22.37587c7.04942,1.63612 6.60099,28.17051 6.60099,28.17051c0,0 26.32792,3.32732 26.94656,10.53321c0.621,7.21039 -24.75018,14.98132 -24.75018,14.98132c0,0 4.97603,26.06396 -1.68417,28.88557c-6.67108,2.822 -21.90573,-18.9094 -21.90573,-18.9094c0,0 -23.25065,12.78728 -27.98611,7.31596c-4.7461,-5.46039 11.21225,-26.66778 11.21225,-26.66778c0,0 -19.34771,-18.16653 -15.60057,-24.3638z" fill="#ffb500" fill-rule="nonzero" stroke="none" stroke-width="0" stroke-linecap="butt" stroke-linejoin="miter"/><path d="M166.60562,21.32825c1.88189,-3.11397 14.49425,1.22091 14.49425,1.22091c0,0 5.67509,-12.06733 9.21412,-11.24307c3.53888,0.82433 3.316,14.15109 3.316,14.15109c0,0 13.22724,1.67987 13.54009,5.29458c0.31072,3.62158 -12.43407,7.52448 -12.43407,7.52448c0,0 2.49915,13.10023 -0.85364,14.51467c-3.34625,1.41674 -10.99519,-9.50374 -10.99519,-9.50374c0,0 -11.69082,6.42556 -14.06953,3.67919c-2.38983,-2.74606 5.62749,-13.39722 5.62749,-13.39722c0,0 -9.71292,-9.13137 -7.83953,-12.24087z" fill="#e2ff00" fill-rule="nonzero" stroke="none" stroke-width="2.57572" stroke-linecap="butt" stroke-linejoin="miter"/><path d="M198.74102,84.0344v-17.06126h59.43921v17.06126z" fill="#5c5c5c" fill-rule="nonzero" stroke="none" stroke-width="0" stroke-linecap="butt" stroke-linejoin="miter"/><path d="M148.545,130.26832v-106.71106h75.73343v106.71106z" fill="#090909" fill-rule="nonzero" stroke="none" stroke-width="0" stroke-linecap="butt" stroke-linejoin="miter"/><path d="M201.74511,350.42884v-306.13197h0.60988l76.55082,306.13197z" fill="#000000" fill-rule="nonzero" stroke="none" stroke-width="NaN" stroke-linecap="butt" stroke-linejoin="miter"/><path d="M88.50638,350.55171l77.55826,-305.19452h0.61791v305.19452z" data-paper-data="{&quot;index&quot;:null}" fill="#000000" fill-rule="nonzero" stroke="none" stroke-width="NaN" stroke-linecap="butt" stroke-linejoin="miter"/><path d="M161.24586,350.64531v-304.67084h53.40041v304.67084z" fill="#000000" fill-rule="nonzero" stroke="none" stroke-width="0" stroke-linecap="butt" stroke-linejoin="miter"/><path d="M141.39933,30.75384v-16.86334h35.07865v16.86334z" fill="#090909" fill-rule="nonzero" stroke="none" stroke-width="0" stroke-linecap="butt" stroke-linejoin="miter"/><path d="M197.4157,30.66231v-16.86334h35.07864v16.86334z" fill="#090909" fill-rule="nonzero" stroke="none" stroke-width="0" stroke-linecap="butt" stroke-linejoin="miter"/><path d="M185.00364,41.62106v-23.11082h3.29804v23.11082z" fill="#090909" fill-rule="nonzero" stroke="none" stroke-width="0" stroke-linecap="butt" stroke-linejoin="miter"/></g></g></svg>