<svg version="1.1" xmlns="http://www.w3.org/2000/svg" xmlns:xlink="http://www.w3.org/1999/xlink" width="353.10954" height="446.14494" viewBox="0,0,353.10954,446.14494"><g transform="translate(2.37309,53.89786)"><g data-paper-data="{&quot;isPaintingLayer&quot;:true}" stroke-miterlimit="10" stroke-dasharray="" stroke-dashoffset="0" style="mix-blend-mode: normal"><path d="M223.95134,68.00725c-9.34665,5.6447 -36.80769,-23.53197 -36.80769,-23.53197c0,0 -31.99888,24.14047 -40.26088,16.99273c-8.2691,-7.14745 11.00365,-42.29129 11.00365,-42.29129c0,0 -32.84192,-22.97472 -28.5975,-33.03972c4.24442,-10.0727 43.61817,-2.60249 43.61817,-2.60249c0,0 11.6927,-38.33263 22.57881,-37.41619c10.90091,0.92356 15.96643,40.6858 15.96643,40.6858c0,0 40.07019,-0.72575 42.54802,9.91844c2.49974,10.63707 -33.75096,27.74707 -33.75096,27.74707c0,0 13.0708,37.89292 3.70195,43.53762z" fill="#ff0000" fill-rule="nonzero" stroke="none" stroke-width="0" stroke-linecap="butt" stroke-linejoin="miter"/><path d="M219.81185,55.43594c-7.58815,4.58269 -29.8826,-19.10461 -29.8826,-19.10461c0,0 -25.97854,19.59863 -32.6861,13.79568c-6.71334,-5.80271 8.9334,-34.33451 8.9334,-34.33451c0,0 -26.66295,-18.65219 -23.21709,-26.82354c3.44586,-8.17759 35.41173,-2.11285 35.41173,-2.11285c0,0 9.49281,-31.12064 18.33078,-30.37661c8.84999,0.7498 12.96247,33.03108 12.96247,33.03108c0,0 32.53128,-0.58921 34.54293,8.05235c2.02944,8.63579 -27.40097,22.52667 -27.40097,22.52667c0,0 10.61162,30.76364 3.00545,35.34634z" fill="#ffb500" fill-rule="nonzero" stroke="none" stroke-width="0" stroke-linecap="butt" stroke-linejoin="miter"/><path d="M205.03415,32.86167c-3.82088,2.30325 -15.02772,-9.6058 -15.02772,-9.6058c0,0 -13.05166,9.8498 -16.42034,6.93354c-3.36845,-2.91626 4.4875,-17.24755 4.4875,-17.24755c0,0 -13.39086,-9.37982 -11.66504,-13.48028c1.73206,-4.1067 17.78916,-1.05943 17.78916,-1.05943c0,0 4.77332,-15.64073 9.219,-15.2597c4.4399,0.37479 6.49914,16.59294 6.49914,16.59294c0,0 16.35495,-0.29183 17.36655,4.04686c1.02385,4.3447 -13.75987,11.31983 -13.75987,11.31983c0,0 5.32071,15.45634 1.51162,17.75959z" fill="#e2ff00" fill-rule="nonzero" stroke="none" stroke-width="2.57572" stroke-linecap="butt" stroke-linejoin="miter"/><path d="M199.54375,22.40043c-2.31636,1.39632 -9.11038,-5.8234 -9.11038,-5.8234c0,0 -7.91241,5.97133 -9.95463,4.20338c-2.04209,-1.76795 2.72049,-10.45614 2.72049,-10.45614c0,0 -8.11806,-5.68641 -7.0718,-8.17226c1.05004,-2.48965 10.78448,-0.64227 10.78448,-0.64227c0,0 2.89377,-9.48202 5.58891,-9.25102c2.69163,0.22721 3.94002,10.05928 3.94002,10.05928c0,0 9.91501,-0.17693 10.52827,2.45336c0.6207,2.63392 -8.34176,6.86252 -8.34176,6.86252c0,0 3.22562,9.37023 0.9164,10.76655z" fill="#ffffff" fill-rule="nonzero" stroke="none" stroke-width="2.57572" stroke-linecap="butt" stroke-linejoin="miter"/><path d="M145.43937,170.54636v-181.5451h80.00293v181.5451z" fill="#000000" fill-rule="nonzero" stroke="#000000" stroke-width="2" stroke-linecap="butt" stroke-linejoin="miter"/><path d="M184.20843,5.33718v-27.69332h4.61555v27.69332z" fill="#000000" fill-rule="nonzero" stroke="#000000" stroke-width="2" stroke-linecap="butt" stroke-linejoin="miter"/><path d="M184.50558,-20.62989c0,-1.30737 1.05983,-2.3672 2.3672,-2.3672c1.30737,0 2.3672,1.05983 2.3672,2.3672c0,1.30737 -1.05983,2.3672 -2.3672,2.3672c-1.30737,0 -2.3672,-1.05983 -2.3672,-2.3672z" fill="#ffffff" fill-rule="nonzero" stroke="none" stroke-width="0" stroke-linecap="butt" stroke-linejoin="miter"/><path d="M207.29558,233.42435c-11.71908,-12.17347 -26.95066,-31.86528 -42.48737,-50.29754c-25.99625,-30.30058 -59.13441,-91.66794 9.33589,-99.08269c54.95932,-6.68753 91.75922,39.56518 136.46055,91.73257c22.52273,28.1256 49.16824,61.25043 28.37277,97.5503c-23.2756,41.03294 -115.50819,152.03625 -179.7521,92.46744c-45.31163,-49.64828 8.19326,-83.35775 44.4475,-111.91208c5.30438,-5.38234 5.8757,-13.2448 3.62276,-20.45801z" data-paper-data="{&quot;index&quot;:null}" fill="#ffab19" fill-rule="evenodd" stroke="#001026" stroke-width="8.5" stroke-linecap="round" stroke-linejoin="round"/><path d="M141.06778,238.42435c-2.25294,7.21321 -1.68162,15.07567 3.62276,20.45801c36.25424,28.55433 89.75913,62.2638 44.4475,111.91208c-64.24391,59.56881 -156.4765,-51.4345 -179.7521,-92.46744c-20.79547,-36.29987 5.85004,-69.4247 28.37277,-97.5503c44.70133,-52.16739 81.50123,-98.4201 136.46055,-91.73257c68.4703,7.41475 35.33214,68.78211 9.33589,99.08269c-15.53671,18.43226 -30.76829,38.12407 -42.48737,50.29754z" data-paper-data="{&quot;index&quot;:null}" fill="#ffab19" fill-rule="evenodd" stroke="#001026" stroke-width="8.5" stroke-linecap="round" stroke-linejoin="round"/><path d="M142.25099,20.38385v-35.4264h88.94516v35.4264z" fill="#000000" fill-rule="nonzero" stroke="none" stroke-width="0" stroke-linecap="butt" stroke-linejoin="miter"/></g></g></svg>